HIERARCHY
ROOT Hips
{
	OFFSET 0.00000 0.00000 0.00000
	CHANNELS 6 Xposition Yposition Zposition Zrotation Yrotation Xrotation 
	JOINT LHipJoint
	{
		OFFSET 0 0 0
		CHANNELS 3 Zrotation Yrotation Xrotation
		JOINT LeftHip
		{
			OFFSET 1.58895 -1.83665 0.71753
			CHANNELS 3 Zrotation Yrotation Xrotation
			JOINT LeftKnee
			{
				OFFSET 2.50528 -6.88321 0.00000
				CHANNELS 3 Zrotation Yrotation Xrotation
				JOINT LeftAnkle
				{
					OFFSET 2.63244 -7.23257 0.00000
					CHANNELS 3 Zrotation Yrotation Xrotation
					JOINT LeftToe
					{
						OFFSET 0.23691 -0.65090 1.72750
						CHANNELS 3 Zrotation Yrotation Xrotation
						End Site
						{
							OFFSET 0.00000 -0.00000 0.92561
						}
					}
				}
			}
		}
	}
	JOINT RHipJoint
	{
		OFFSET 0 0 0
		CHANNELS 3 Zrotation Yrotation Xrotation
		JOINT RightHip
		{
			OFFSET -1.51435 -1.83665 0.71753
			CHANNELS 3 Zrotation Yrotation Xrotation
			JOINT RightKnee
			{
				OFFSET -2.54551 -6.99375 0.00000
				CHANNELS 3 Zrotation Yrotation Xrotation
				JOINT RightAnkle
				{
					OFFSET -2.66027 -7.30903 0.00000
					CHANNELS 3 Zrotation Yrotation Xrotation
					JOINT RightToe
					{
						OFFSET -0.22981 -0.63138 2.03959
						CHANNELS 3 Zrotation Yrotation Xrotation
						End Site
						{
							OFFSET -0.00000 -0.00000 1.07060
						}
					}
				}
			}
		}
	}
	JOINT lowerback
	{
		OFFSET 0 0 0
		CHANNELS 3 Zrotation Yrotation Xrotation
		JOINT Chest
		{
			OFFSET -0.02651 1.86275 -0.11152
			CHANNELS 3 Zrotation Yrotation Xrotation
			JOINT Chest2
			{
				OFFSET 0.01019 1.86224 0.04087
				CHANNELS 3 Zrotation Yrotation Xrotation
				JOINT lowerneck
				{
					OFFSET 0 0 0
					CHANNELS 3 Zrotation Yrotation Xrotation
					JOINT Neck
					{
						OFFSET -0.01926 1.80512 0.08867
						CHANNELS 3 Zrotation Yrotation Xrotation
						JOINT Head
						{
							OFFSET 0.05516 1.76451 -0.38475
							CHANNELS 3 Zrotation Yrotation Xrotation
							End Site
							{
								OFFSET 0.01592 1.82587 -0.14001
							}
						}
					}
				}
				JOINT LeftCollar
				{
					OFFSET 0 0 0
					CHANNELS 3 Zrotation Yrotation Xrotation
					JOINT LeftShoulder
					{
						OFFSET 3.47116 1.51376 0.14491
CHANNELS 3 Zrotation Xrotation Yrotation
						JOINT LeftElbow
						{
OFFSET 0 -4.780950 0.000000
CHANNELS 3 Zrotation Xrotation Yrotation
							JOINT LeftWrist
							{
OFFSET 0 -3.586150 -0.000000
CHANNELS 3 Zrotation Xrotation Yrotation
								JOINT lhand
								{
									OFFSET 0 0 0
CHANNELS 3 Zrotation Xrotation Yrotation
									JOINT LFingers
									{
OFFSET 0 -0.659810 0.000000
CHANNELS 3 Zrotation Xrotation Yrotation
										End Site
										{
OFFSET 0 -0.531960 0.000000
										}
									}
								}
								JOINT LThumb
								{
OFFSET 0 0.000000 0.000000
CHANNELS 3 Zrotation Xrotation Yrotation
									End Site
									{
OFFSET 0 -0.540080 0.540080
									}
								}
							}
						}
					}
				}
				JOINT RightCollar
				{
					OFFSET 0 0 0
					CHANNELS 3 Zrotation Yrotation Xrotation
					JOINT RightShoulder
					{
						OFFSET -3.31725 1.61216 0.35156
CHANNELS 3 Zrotation Xrotation Yrotation
						JOINT RightElbow
						{
OFFSET 0 -4.489130 0.000000
CHANNELS 3 Zrotation Xrotation Yrotation
							JOINT RightWrist
							{
OFFSET 0 -3.705100 0.000000
CHANNELS 3 Zrotation Xrotation Yrotation
								JOINT rhand
								{
									OFFSET 0 0 0
CHANNELS 3 Zrotation Xrotation Yrotation
									JOINT RFingers
									{
OFFSET 0 -0.449140 0.000000
CHANNELS 3 Zrotation Xrotation Yrotation
										End Site
										{
OFFSET 0 -0.362110 0.000000
										}
									}
								}
								JOINT RThumb
								{
OFFSET 0 0.000000 0.000000
CHANNELS 3 Zrotation Xrotation Yrotation
									End Site
									{
OFFSET 0 -0.367630 0.367630
									}
								}
							}
						}
					}
				}
			}
		}
	}
}
MOTION
Frames: 8
Frame Time: 0.008333333333333333
-1.017000 18.739000 5.417700 -3.197600 -0.251500 1.585200 0.000000 0.000000 0.000000 -9.766700 -5.985100 -6.055200 1.431900 7.566100 21.403700 1.078600 1.654500 -20.282200 8.954200 -16.778200 -55.931700 0.000000 0.000000 0.000000 18.540500 -2.176500 5.528700 0.000000 0.000000 -0.000000 -0.723300 -5.427100 -18.940400 -0.123700 2.267300 -6.245000 2.454100 -0.258400 12.214500 1.789200 0.100000 1.032700 0.477400 0.009900 -5.768800 2.329200 -0.313800 -9.188500 -1.840300 -0.457200 21.653300 -1.050100 -0.209400 8.203700 -0.000000 0.000000 0.000000 -0.495500 9.441300 -36.197000 22.790800 -33.859300 7.021400 8.897600 -3.582000 26.487100 0.000000 0.000000 0.000000 -7.125000 0.000000 0.000000 -12.614600 3.762800 -12.060800 -0.000000 0.000000 0.000000 -3.650100 9.349700 35.988900 -22.126900 -33.120200 -6.655100 -9.510400 23.606500 28.664200 0.000000 0.000000 0.000000 7.125000 0.000000 -0.000000 23.368600 57.410600 -7.372400
-1.013493 18.740993 5.418529 -3.152041 -0.195364 1.663893 0.000000 0.000000 0.000000 -9.824869 -6.066503 -6.124644 1.429557 7.560275 21.386179 1.070636 1.703003 -20.231003 8.967779 -16.786925 -55.978561 0.000000 0.000000 0.000000 18.479163 -2.205419 5.436850 0.000000 0.000000 0.000000 -0.724196 -5.416309 -18.942343 -0.120407 2.237229 -6.161690 2.342293 -0.247218 12.257649 1.801032 0.102461 1.017583 0.552733 0.013668 -5.809124 2.315441 -0.352795 -9.321057 -1.853616 -0.508366 21.730245 -1.058436 -0.236045 8.252678 0.000000 0.000000 0.000000 -0.534470 9.324105 -36.283065 22.779078 -33.846346 7.014896 8.375818 -3.201183 25.894541 0.000000 0.000000 0.000000 -7.125000 0.000000 0.000000 -12.909144 4.399280 -12.200544 0.000000 0.000000 0.000000 -3.743118 9.389401 35.975182 -22.139260 -33.134049 -6.661778 -9.495029 23.570569 28.876139 0.000000 0.000000 0.000000 7.125000 0.000000 0.000000 23.537954 57.600425 -7.539370
-1.009479 18.741321 5.419307 -3.105275 -0.072215 1.678172 0.000000 0.000000 0.000000 -9.888209 -6.178502 -6.127937 1.428314 7.557036 21.376408 1.071829 1.643409 -20.216136 8.939993 -16.768972 -55.882308 0.000000 0.000000 0.000000 18.413255 -2.323892 5.400115 0.000000 0.000000 0.000000 -0.721636 -5.413099 -18.914022 -0.125636 2.284906 -6.293753 2.244379 -0.253906 12.303994 1.808171 0.082252 1.022093 0.619045 0.006187 -5.830396 2.450116 -0.386164 -9.221604 -1.977402 -0.550271 21.576091 -1.124590 -0.257292 8.180528 0.000000 0.000000 0.000000 -0.566399 9.270549 -36.410662 22.989201 -34.076942 7.132271 8.246258 -2.567146 24.641627 0.000000 0.000000 0.000000 -7.125000 0.000000 0.000000 -12.959830 5.637925 -11.940699 0.000000 0.000000 0.000000 -3.810398 9.482951 35.960240 -22.208409 -33.211808 -6.699668 -9.576887 23.669963 28.998074 0.000000 0.000000 0.000000 7.125000 0.000000 0.000000 23.544824 57.728860 -7.615761
-1.005354 18.742818 5.417814 -3.063466 0.026830 1.703234 0.000000 0.000000 0.000000 -9.943790 -6.193989 -6.184098 1.428339 7.557178 21.376882 1.066704 1.636173 -20.166462 8.960098 -16.781958 -55.952001 0.000000 0.000000 0.000000 18.354958 -2.410797 5.346483 0.000000 0.000000 0.000000 -0.723186 -5.412111 -18.929360 -0.121461 2.246947 -6.188673 2.158717 -0.270193 12.371550 1.812817 0.051612 1.026391 0.677974 -0.006803 -5.863752 2.496228 -0.391416 -9.194195 -2.006946 -0.558922 21.513860 -1.142353 -0.260763 8.154097 0.000000 0.000000 0.000000 -0.589656 9.248201 -36.499447 23.054547 -34.148397 7.168891 8.377015 -2.685003 24.529905 0.000000 0.000000 0.000000 -7.125000 0.000000 0.000000 -12.878496 5.734003 -11.837372 0.000000 0.000000 0.000000 -3.812669 9.485363 35.861225 -22.235650 -33.242296 -6.714571 -9.669227 23.767119 28.805946 0.000000 0.000000 0.000000 7.125000 0.000000 0.000000 23.311411 57.573439 -7.446161
-1.000315 18.744000 5.417214 -3.049030 0.078807 1.740885 0.000000 0.000000 0.000000 -9.968254 -6.211910 -6.240414 1.427843 7.555857 21.373015 1.064872 1.575173 -20.123474 8.928900 -16.761700 -55.843800 0.000000 0.000000 0.000000 18.321060 -2.448521 5.296287 0.000000 0.000000 0.000000 -0.721186 -5.425683 -18.917558 -0.129227 2.316959 -6.382510 2.089492 -0.255944 12.413472 1.828428 0.064027 1.005736 0.731724 0.000885 -5.909071 2.467905 -0.434510 -9.233948 -1.945758 -0.627306 21.617984 -1.124848 -0.288997 8.195081 0.000000 0.000000 0.000000 -0.625300 9.309954 -36.569983 23.111635 -34.210691 7.200953 8.383630 -2.660263 24.546772 0.000000 0.000000 0.000000 -7.125000 0.000000 0.000000 -12.874813 5.716742 -11.838124 0.000000 0.000000 0.000000 -3.874748 9.594535 35.789904 -22.309660 -33.325144 -6.755193 -9.759189 23.683790 28.798717 0.000000 0.000000 0.000000 7.125000 0.000000 0.000000 23.215700 57.586023 -7.420472
-0.993794 18.743168 5.417339 -3.054094 0.105749 1.732683 0.000000 0.000000 0.000000 -9.981573 -6.206297 -6.253984 1.428639 7.557942 21.379326 1.062382 1.554407 -20.091451 8.931473 -16.763419 -55.852778 0.000000 0.000000 0.000000 18.304233 -2.476935 5.299434 0.000000 0.000000 0.000000 -0.720640 -5.429939 -18.915245 -0.131657 2.339183 -6.443857 2.020727 -0.238263 12.511992 1.866239 0.084600 0.972957 0.807577 0.012705 -5.998865 2.482402 -0.431144 -9.195003 -1.939907 -0.625190 21.670692 -1.125472 -0.285847 8.205690 0.000000 0.000000 0.000000 -0.682639 9.352629 -36.645453 23.128140 -34.228615 7.210215 8.297935 -2.703109 24.620270 0.000000 0.000000 0.000000 -7.125000 0.000000 0.000000 -12.928086 5.653575 -11.905775 0.000000 0.000000 0.000000 -3.957198 9.677020 35.697830 -22.344927 -33.364592 -6.774557 -9.760183 23.676308 29.133848 0.000000 0.000000 0.000000 7.125000 0.000000 0.000000 23.459985 57.891574 -7.679665
-0.986873 18.742529 5.420356 -3.088401 0.067622 1.669037 0.000000 0.000000 0.000000 -9.977078 -6.182025 -6.180601 1.431656 7.565534 21.401916 1.066041 1.530141 -20.114886 8.906093 -16.746869 -55.764683 0.000000 0.000000 0.000000 18.315563 -2.460331 5.375753 0.000000 0.000000 0.000000 -0.717908 -5.451439 -18.901417 -0.134177 2.360669 -6.503545 1.950658 -0.188737 12.627991 1.912345 0.146532 1.002029 0.885392 0.045337 -6.033116 2.511222 -0.438195 -9.239227 -1.967201 -0.635306 21.627823 -1.140206 -0.291161 8.198923 0.000000 0.000000 0.000000 -0.763568 9.257601 -36.680331 23.104879 -34.203386 7.197150 8.299030 -2.680787 24.479008 0.000000 0.000000 0.000000 -7.125000 0.000000 0.000000 -12.924927 5.791595 -11.867802 0.000000 0.000000 0.000000 -4.004825 9.623239 35.491769 -22.312099 -33.327942 -6.756553 -9.883518 23.668971 28.873169 0.000000 0.000000 0.000000 7.125000 0.000000 0.000000 23.144099 57.680414 -7.449212
-0.979552 18.743599 5.420300 -3.019222 0.127557 1.691533 0.000000 0.000000 0.000000 -10.085819 -6.266533 -6.211925 1.437124 7.579272 21.443240 1.068051 1.575327 -20.152377 8.936457 -16.766663 -55.870163 0.000000 0.000000 0.000000 18.210955 -2.512038 5.339348 0.000000 0.000000 0.000000 -0.720675 -5.428702 -18.914322 -0.128552 2.311314 -6.366864 1.792220 -0.182152 12.687172 1.946367 0.137702 0.980557 1.012740 0.045350 -6.089340 2.295274 -0.451446 -9.232397 -1.759596 -0.659943 21.622921 -1.036923 -0.299847 8.197373 0.000000 0.000000 0.000000 -0.878294 9.216437 -36.711799 23.090635 -34.187836 7.189131 8.315359 -2.713528 24.417307 0.000000 0.000000 0.000000 -7.125000 0.000000 0.000000 -12.913969 5.850392 -11.842315 0.000000 0.000000 0.000000 -4.050165 9.686505 35.242414 -22.363033 -33.384931 -6.784566 -9.908678 23.636162 28.850324 0.000000 0.000000 0.000000 7.125000 0.000000 0.000000 23.102171 57.664875 -7.425949
